<svg xmlns="http://www.w3.org/2000/svg" version="1.1" xmlns:xlink="http://www.w3.org/1999/xlink" xmlns:svgjs="http://svgjs.dev/svgjs" width="1000" height="1000" viewBox="0 0 1000 1000"><rect width="1000" height="1000" fill="#ffffff"></rect><g transform="matrix(0.7,0,0,0.7,149.57575757575756,429.0618032625848)"><svg viewBox="0 0 396 80" data-background-color="#ceb700" preserveAspectRatio="xMidYMid meet" height="202" width="1000" xmlns="http://www.w3.org/2000/svg" xmlns:xlink="http://www.w3.org/1999/xlink"><g id="tight-bounds" transform="matrix(1,0,0,1,0.2400000000000091,0.134764773643667)"><svg viewBox="0 0 395.52 79.73047045271267" height="79.73047045271267" width="395.52"><g><svg viewBox="0 0 551.4741354710511 111.1683157959393" height="79.73047045271267" width="395.52"><g transform="matrix(1,0,0,1,155.95413547105107,15.364072588295528)"><svg viewBox="0 0 395.52 80.44017061934824" height="80.44017061934824" width="395.52"><g><svg viewBox="0 0 395.52 80.44017061934824" height="80.44017061934824" width="395.52" id="textblock"><g><svg viewBox="0 0 395.52 80.44017061934824" height="80.44017061934824" width="395.52"><g transform="matrix(1,0,0,1,0,0)"><svg width="395.52" viewBox="10.800000190734863 -41.54999923706055 321.94000244140625 59.599998474121094" height="80.44017061934824" data-palette-color="#f5fd00"><g class="undefined-text-0" data-fill-palette-color="primary" id="text-0"><path d="M14.95-30.3L14.95-30.3Q12.95-30.3 11.88-31.43 10.8-32.55 10.8-34.15L10.8-34.15Q10.8-34.55 10.93-35.1 11.05-35.65 11.25-36.05L11.25-36.05Q11.9-35.75 13.18-35.63 14.45-35.5 16.15-35.5L16.15-35.5Q18.7-35.5 21.93-35.73 25.15-35.95 28.1-36.2 31.05-36.45 33.3-36.68 35.55-36.9 36.2-36.9L36.2-36.9Q38.05-36.9 38.88-35.52 39.7-34.15 40.1-31.85L40.1-31.85Q38.8-31.95 37.52-32.02 36.25-32.1 35.35-32.1L35.35-32.1Q33.75-32.1 32.13-32 30.5-31.9 28.85-31.7L28.85-31.7Q28.15-30.25 27.3-28.28 26.45-26.3 25.63-24.15 24.8-22 24.05-19.88 23.3-17.75 22.75-16.05L22.75-16.05Q21.65-12.75 20.83-9.95 20-7.15 19.38-4.73 18.75-2.3 18.3-0.1 17.85 2.1 17.5 4.2L17.5 4.2Q14.15 3.7 11.9 0L11.9 0Q12.3-1.55 12.88-3.38 13.45-5.2 14.23-7.53 15-9.85 16.05-12.8 17.1-15.75 18.45-19.5L18.45-19.5Q18.95-20.9 19.5-22.43 20.05-23.95 20.58-25.45 21.1-26.95 21.53-28.35 21.95-29.75 22.25-30.9L22.25-30.9Q20.15-30.65 18.28-30.48 16.4-30.3 14.95-30.3ZM40.15 1.75L40.15 1.75Q37.3 1.45 35.6-0.75 33.9-2.95 33.9-6.35L33.9-6.35Q33.9-8.35 34.5-10.5 35.1-12.65 36.2-14.68 37.3-16.7 38.8-18.5 40.3-20.3 42.05-21.6L42.05-21.6Q44.8-23.65 47.2-23.65L47.2-23.65Q48.8-22.8 50.35-20.1L50.35-20.1Q50.6-20.1 50.8-20.13 51-20.15 51.25-20.15L51.25-20.15Q53.9-20.15 53.9-15.45L53.9-15.45Q53.9-12.3 52.87-9.47 51.85-6.65 50.02-4.35 48.2-2.05 45.67-0.48 43.15 1.1 40.15 1.75ZM42.7-14L42.7-14Q41.85-12.85 41.1-11.5 40.35-10.15 39.8-8.78 39.25-7.4 38.95-6.13 38.65-4.85 38.65-3.85L38.65-3.85Q38.65-2.65 39.05-1.55 39.45-0.45 39.95-0.3L39.95-0.3Q42.2-0.8 44.07-2.18 45.95-3.55 47.32-5.6 48.7-7.65 49.47-10.25 50.25-12.85 50.25-15.8L50.25-15.8Q50.25-17.1 50.1-17.85 49.95-18.6 49.6-19.15L49.6-19.15Q47.4-18.5 45.67-17.05 43.95-15.6 42.7-14ZM67.2-23.35L67.2-23.35Q68.2-23.35 69.5-22.75 70.8-22.15 71.8-21.2L71.8-21.2Q71.55-23.2 71.17-24.98 70.8-26.75 70.07-28.65 69.35-30.55 68.15-32.8 66.95-35.05 65.15-37.95L65.15-37.95Q65.3-38.4 65.82-39 66.35-39.6 67.02-40.13 67.7-40.65 68.42-41.05 69.15-41.45 69.8-41.55L69.8-41.55Q71.2-40 72.45-37.68 73.7-35.35 74.65-32.68 75.6-30 76.12-27.15 76.65-24.3 76.65-21.7L76.65-21.7Q76.65-19.1 76.07-16.35 75.5-13.6 74.47-10.98 73.45-8.35 72.1-6 70.75-3.65 69.17-1.8 67.6 0.05 65.9 1.23 64.2 2.4 62.5 2.7L62.5 2.7Q59.05 2.3 57.22 0.48 55.4-1.35 55.4-4.55L55.4-4.55Q55.4-6.25 55.92-8.25 56.45-10.25 57.32-12.23 58.2-14.2 59.37-16.07 60.55-17.95 61.87-19.45 63.2-20.95 64.55-22 65.9-23.05 67.2-23.35ZM62.1 0.7L62.1 0.7Q63.85 0.1 65.6-1.95 67.35-4 68.75-6.78 70.15-9.55 71.02-12.73 71.9-15.9 71.9-18.85L71.9-18.85Q71.9-19.7 71.9-19.9 71.9-20.1 71.85-20.3L71.85-20.3Q70.65-19.8 69.3-18.6 67.95-17.4 66.6-15.83 65.25-14.25 64.05-12.4 62.85-10.55 61.9-8.7 60.95-6.85 60.4-5.15 59.85-3.45 59.85-2.15L59.85-2.15Q59.85 0.35 62.1 0.7ZM95.19-20.2L95.19-20.2Q95.69-20.2 96.37-20.03 97.04-19.85 97.59-19.58 98.14-19.3 98.52-19 98.89-18.7 98.89-18.45L98.89-18.45Q97.89-16.35 97.04-14.23 96.19-12.1 95.59-10.15 94.99-8.2 94.67-6.5 94.34-4.8 94.34-3.55L94.34-3.55Q94.34-2.15 94.64-1.23 94.94-0.3 95.64 0.1L95.64 0.1Q95.04 0.5 94.09 0.75 93.14 1 92.39 1L92.39 1Q89.69 1 89.69-2.7L89.69-2.7Q89.69-5.55 91.59-10.5L91.59-10.5Q90.59-8.2 89.29-6.18 87.99-4.15 86.64-2.6 85.29-1.05 83.92-0.08 82.54 0.9 81.39 1.1L81.39 1.1Q79.54 1 78.39-0.68 77.24-2.35 77.24-4.95L77.24-4.95Q77.24-7.75 78.44-10.85 79.64-13.95 81.52-16.6 83.39-19.25 85.59-21.03 87.79-22.8 89.84-22.9L89.84-22.9Q90.34-22.75 90.97-22.3 91.59-21.85 92.17-21.25 92.74-20.65 93.14-20.03 93.54-19.4 93.59-18.95L93.59-18.95Q91.59-18.65 89.47-17 87.34-15.35 85.62-13.03 83.89-10.7 82.79-8.05 81.69-5.4 81.69-3.1L81.69-3.1Q81.69-2.15 82.39-1.9L82.39-1.9Q83.84-2.2 85.74-4.38 87.64-6.55 90.34-11.1L90.34-11.1Q90.84-12 91.47-13.1 92.09-14.2 92.74-15.4 93.39-16.6 94.02-17.82 94.64-19.05 95.19-20.2ZM120.24-7.75L120.24-7.75Q119.09-4.1 117.94-1.1 116.79 1.9 115.49 4.42 114.19 6.95 112.69 9.08 111.19 11.2 109.39 13.1L109.39 13.1Q107.09 15.5 104.64 16.78 102.19 18.05 99.74 18.05L99.74 18.05Q98.49 18.05 97.27 17.78 96.04 17.5 94.97 17.03 93.89 16.55 93.07 15.93 92.24 15.3 91.89 14.6L91.89 14.6Q91.89 14 92.59 13.55L92.59 13.55Q93.19 14.1 93.59 14.4 93.99 14.7 94.37 14.9 94.74 15.1 95.17 15.15 95.59 15.2 96.14 15.2L96.14 15.2Q98.99 15.2 101.72 13.53 104.44 11.85 106.87 8.78 109.29 5.7 111.29 1.33 113.29-3.05 114.69-8.45L114.69-8.45Q114.04-7.45 113.09-6 112.14-4.55 110.99-3.13 109.84-1.7 108.62-0.55 107.39 0.6 106.24 1L106.24 1Q105.44 0.95 104.57 0.68 103.69 0.4 102.92-0.1 102.14-0.6 101.54-1.3 100.94-2 100.74-2.9L100.74-2.9Q100.74-4.35 100.84-5.23 100.94-6.1 101.19-7.15L101.19-7.15Q101.64-9.05 102.52-11.45 103.39-13.85 104.57-16.18 105.74-18.5 107.17-20.53 108.59-22.55 110.14-23.7L110.14-23.7Q110.54-23.7 111.14-23.63 111.74-23.55 112.39-23.35 113.04-23.15 113.64-22.88 114.24-22.6 114.69-22.15L114.69-22.15Q114.14-21.65 112.29-18.8 110.44-15.95 108.19-10.6L108.19-10.6Q107.94-10.05 107.59-9 107.24-7.95 106.92-6.8 106.59-5.65 106.34-4.55 106.09-3.45 106.09-2.8L106.09-2.8Q106.09-2.4 106.22-2.2 106.34-2 106.44-1.9L106.44-1.9Q107.34-2.05 108.84-3.38 110.34-4.7 112.24-7.5L112.24-7.5Q113.44-9.3 114.44-11.08 115.44-12.85 116.42-14.65 117.39-16.45 118.44-18.35 119.49-20.25 120.69-22.25L120.69-22.25Q121.34-22.25 122.09-22.1 122.84-21.95 123.54-21.73 124.24-21.5 124.77-21.23 125.29-20.95 125.54-20.65L125.54-20.65Q123.99-17.35 122.64-14.2 121.29-11.05 120.24-7.75Z" fill="#000000" data-fill-palette-color="primary"></path><path d="M132.09-2.85L132.09-2.85Q132.09-4.65 132.67-7.53 133.24-10.4 134.17-13.73 135.09-17.05 136.29-20.53 137.49-24 138.74-27.05 139.99-30.1 141.19-32.4 142.39-34.7 143.34-35.7L143.34-35.7Q143.84-35.65 144.67-35.33 145.49-35 146.34-34.55 147.19-34.1 147.89-33.58 148.59-33.05 148.79-32.6L148.79-32.6Q147.34-31.3 145.92-28.68 144.49-26.05 143.17-22.7 141.84-19.35 140.69-15.63 139.54-11.9 138.69-8.4 137.84-4.9 137.37-1.9 136.89 1.1 136.89 2.95L136.89 2.95Q136.89 3.8 137.04 4L137.04 4Q135.94 3.95 135.44 3.63 134.94 3.3 134.67 2.93 134.39 2.55 134.17 2.18 133.94 1.8 133.49 1.6L133.49 1.6Q133.14 1.45 132.89 0.9 132.64 0.35 132.47-0.33 132.29-1 132.19-1.7 132.09-2.4 132.09-2.85ZM163.39-19.9L163.39-19.9Q163.34-18.95 163.06-17.93 162.79-16.9 162.39-16.07 161.99-15.25 161.54-14.7 161.09-14.15 160.69-14.15L160.69-14.15Q160.14-14.2 160.04-14.9L160.04-14.9Q160.04-15.05 160.16-15.38 160.29-15.7 160.44-16.1 160.59-16.5 160.71-16.9 160.84-17.3 160.84-17.6L160.84-17.6Q160.84-18.3 160.51-18.78 160.19-19.25 159.64-19.25L159.64-19.25Q157.64-19.25 156.59-16.75 155.54-14.25 155.54-9.4L155.54-9.4Q155.54-8.9 155.59-8.8L155.59-8.8Q156.64-8.85 157.46-8.88 158.29-8.9 159.09-8.9L159.09-8.9Q159.14-8.8 159.14-8.5L159.14-8.5Q159.14-8.05 158.94-7.85L158.94-7.85Q157.79-7.6 157.11-7.43 156.44-7.25 156.09-7.1 155.74-6.95 155.66-6.78 155.59-6.6 155.59-6.3L155.59-6.3Q155.59-5.9 155.61-5.5 155.64-5.1 155.64-4.5L155.64-4.5Q155.64-0.3 153.36 2.25 151.09 4.8 147.04 5.2L147.04 5.2Q146.34 5.15 145.59 4.8 144.84 4.45 144.16 3.9 143.49 3.35 142.99 2.68 142.49 2 142.29 1.3L142.29 1.3Q142.29-0.6 143.09-2.33 143.89-4.05 145.26-5.38 146.64-6.7 148.51-7.53 150.39-8.35 152.59-8.5L152.59-8.5Q152.59-9.75 152.34-10.95 152.09-12.15 151.81-13.28 151.54-14.4 151.29-15.48 151.04-16.55 151.04-17.6L151.04-17.6Q151.04-18.95 151.59-20.28 152.14-21.6 153.04-22.73 153.94-23.85 155.14-24.65 156.34-25.45 157.64-25.75L157.64-25.75Q158.19-25.6 159.11-24.88 160.04-24.15 160.94-23.25 161.84-22.35 162.54-21.43 163.24-20.5 163.39-19.9ZM146.89 2.9L146.89 2.9Q148.09 2.4 149.16 1.45 150.24 0.5 151.04-0.7 151.84-1.9 152.31-3.25 152.79-4.6 152.79-5.9L152.79-5.9Q151.79-5.75 150.59-4.98 149.39-4.2 148.34-3.13 147.29-2.05 146.59-0.9 145.89 0.25 145.89 1.1L145.89 1.1Q145.89 2.2 146.89 2.9Z" fill="#000000" data-fill-palette-color="secondary"></path><path d="M178.34-30.3L178.34-30.3Q176.34-30.3 175.27-31.43 174.19-32.55 174.19-34.15L174.19-34.15Q174.19-34.55 174.32-35.1 174.44-35.65 174.64-36.05L174.64-36.05Q175.29-35.75 176.57-35.63 177.84-35.5 179.54-35.5L179.54-35.5Q182.09-35.5 185.32-35.73 188.54-35.95 191.49-36.2 194.44-36.45 196.69-36.68 198.94-36.9 199.59-36.9L199.59-36.9Q201.44-36.9 202.27-35.52 203.09-34.15 203.49-31.85L203.49-31.85Q202.19-31.95 200.91-32.02 199.64-32.1 198.74-32.1L198.74-32.1Q197.14-32.1 195.52-32 193.89-31.9 192.24-31.7L192.24-31.7Q191.54-30.25 190.69-28.28 189.84-26.3 189.02-24.15 188.19-22 187.44-19.88 186.69-17.75 186.14-16.05L186.14-16.05Q185.04-12.75 184.22-9.95 183.39-7.15 182.77-4.73 182.14-2.3 181.69-0.1 181.24 2.1 180.89 4.2L180.89 4.2Q177.54 3.7 175.29 0L175.29 0Q175.69-1.55 176.27-3.38 176.84-5.2 177.62-7.53 178.39-9.85 179.44-12.8 180.49-15.75 181.84-19.5L181.84-19.5Q182.34-20.9 182.89-22.43 183.44-23.95 183.97-25.45 184.49-26.95 184.92-28.35 185.34-29.75 185.64-30.9L185.64-30.9Q183.54-30.65 181.67-30.48 179.79-30.3 178.34-30.3ZM197.59-0.85L197.59-0.85Q197.59-2.6 197.94-4.98 198.29-7.35 198.96-10.05 199.64-12.75 200.56-15.7 201.49-18.65 202.64-21.6L202.64-21.6Q203.64-24.25 204.96-26.95 206.29-29.65 207.84-32.25 209.39-34.85 211.06-37.2 212.74-39.55 214.44-41.5L214.44-41.5Q215.24-41.5 216.16-41.3 217.09-41.1 217.96-40.78 218.84-40.45 219.56-40 220.29-39.55 220.74-39.1L220.74-39.1Q216.99-35.25 213.99-31.33 210.99-27.4 209.24-23.95L209.24-23.95Q208.29-22.05 207.51-20.4 206.74-18.75 206.09-17.13 205.44-15.5 204.91-13.88 204.39-12.25 203.94-10.45L203.94-10.45Q213.54-22.7 218.19-22.7L218.19-22.7Q219.49-22.7 220.99-21.85 222.49-21 223.64-19.55L223.64-19.55Q222.09-17.85 220.44-15.45 218.79-13.05 217.41-10.63 216.04-8.2 215.16-6.13 214.29-4.05 214.29-3.05L214.29-3.05Q214.29-2.55 214.44-2.38 214.59-2.2 215.09-2.2L215.09-2.2Q215.84-2.2 216.29-2.4 216.74-2.6 216.84-2.6L216.84-2.6Q217.09-2.2 217.14-2.05 217.19-1.9 217.19-1.8L217.19-1.8Q217.19-1.6 216.59-1.23 215.99-0.85 215.16-0.48 214.34-0.1 213.54 0.2 212.74 0.5 212.34 0.5L212.34 0.5Q211.84 0.5 211.34 0.23 210.84-0.05 210.46-0.5 210.09-0.95 209.86-1.5 209.64-2.05 209.64-2.65L209.64-2.65Q209.64-3.4 210.06-4.88 210.49-6.35 211.24-8.33 211.99-10.3 213.04-12.65 214.09-15 215.29-17.45L215.29-17.45Q215.29-17.65 215.09-17.65L215.09-17.65Q214.94-17.65 214.31-17.25 213.69-16.85 213.14-16.45L213.14-16.45Q211.34-15.1 209.51-13.13 207.69-11.15 205.96-8.8 204.24-6.45 202.71-3.83 201.19-1.2 200.09 1.45L200.09 1.45Q199.94 1.8 199.64 2.1 199.34 2.4 199.14 2.4L199.14 2.4Q198.99 2.4 198.71 2.05 198.44 1.7 198.21 1.18 197.99 0.65 197.79 0.1 197.59-0.45 197.59-0.85ZM241.39-20.7L241.39-20.7Q241.19-17.6 240.29-15.38 239.39-13.15 237.71-11.48 236.04-9.8 233.64-8.45 231.23-7.1 228.04-5.85L228.04-5.85Q228.04-5.55 228.01-5.23 227.98-4.9 227.98-4.55L227.98-4.55Q227.98-3.9 228.09-3.2 228.19-2.5 228.44-1.9 228.69-1.3 229.14-0.93 229.59-0.55 230.29-0.55L230.29-0.55Q231.64-0.55 232.94-1.15 234.23-1.75 235.41-2.63 236.59-3.5 237.61-4.53 238.64-5.55 239.44-6.4L239.44-6.4Q239.94-5.95 240.29-5.55L240.29-5.55Q238.04-2.55 235.36-0.58 232.69 1.4 230.29 1.95L230.29 1.95Q226.84 1.55 224.91-0.58 222.99-2.7 222.99-5.7L222.99-5.7Q222.99-7.75 223.56-9.88 224.14-12 225.16-13.98 226.19-15.95 227.56-17.7 228.94-19.45 230.51-20.75 232.09-22.05 233.76-22.8 235.44-23.55 237.09-23.55L237.09-23.55Q239.39-23.25 241.39-20.7ZM237.94-19.05L237.94-19.05Q236.59-18.85 235.14-17.95 233.69-17.05 232.41-15.55 231.14-14.05 230.09-12.05 229.04-10.05 228.44-7.75L228.44-7.75Q232.44-9.75 235.09-12.68 237.73-15.6 237.94-19.05Z" fill="#000000" data-fill-palette-color="primary"></path><path d="M249.79-2.6L249.79-2.6Q250.54-4.25 251.59-6.85 252.64-9.45 253.79-12.48 254.94-15.5 256.14-18.68 257.34-21.85 258.39-24.7 259.44-27.55 260.21-29.8 260.99-32.05 261.34-33.25L261.34-33.25Q258.19-31.95 255.94-29.3 253.69-26.65 252.54-22.65L252.54-22.65Q251.39-23.05 250.44-24.08 249.49-25.1 249.19-26.65L249.19-26.65Q249.69-28.95 251.07-30.85 252.44-32.75 254.54-34.1 256.64-35.45 259.39-36.18 262.14-36.9 265.29-36.9L265.29-36.9Q269.29-36.9 272.64-35.73 275.99-34.55 278.39-32.45 280.79-30.35 282.14-27.4 283.49-24.45 283.49-20.85L283.49-20.85Q283.49-15.95 281.69-11.5 279.89-7.05 276.82-3.65 273.74-0.25 269.69 1.78 265.64 3.8 261.19 3.8L261.19 3.8Q257.09 3.8 254.17 2.18 251.24 0.55 249.79-2.6ZM267.44-34.4L267.44-34.4Q264.94-34.4 262.69-33.7L262.69-33.7Q264.89-32.9 266.34-32.02 267.79-31.15 268.34-30.65L268.34-30.65Q267.94-30.1 267.17-28.7 266.39-27.3 265.37-25.3 264.34-23.3 263.19-20.93 262.04-18.55 260.94-16.05L260.94-16.05Q258.09-9.7 256.82-6.05 255.54-2.4 255.54-1L255.54-1Q256.24-0.75 257.24-0.65 258.24-0.55 259.39-0.55L259.39-0.55Q263.44-0.55 267.07-2.43 270.69-4.3 273.41-7.45 276.14-10.6 277.72-14.78 279.29-18.95 279.29-23.55L279.29-23.55Q279.29-28.7 276.09-31.55 272.89-34.4 267.44-34.4ZM302.39-20.2L302.39-20.2Q302.89-20.2 303.56-20.03 304.24-19.85 304.79-19.58 305.34-19.3 305.71-19 306.09-18.7 306.09-18.45L306.09-18.45Q305.09-16.35 304.24-14.23 303.39-12.1 302.79-10.15 302.19-8.2 301.86-6.5 301.54-4.8 301.54-3.55L301.54-3.55Q301.54-2.15 301.84-1.23 302.14-0.3 302.84 0.1L302.84 0.1Q302.24 0.5 301.29 0.75 300.34 1 299.59 1L299.59 1Q296.89 1 296.89-2.7L296.89-2.7Q296.89-5.55 298.79-10.5L298.79-10.5Q297.79-8.2 296.49-6.18 295.19-4.15 293.84-2.6 292.49-1.05 291.11-0.08 289.74 0.9 288.59 1.1L288.59 1.1Q286.74 1 285.59-0.68 284.44-2.35 284.44-4.95L284.44-4.95Q284.44-7.75 285.64-10.85 286.84-13.95 288.71-16.6 290.59-19.25 292.79-21.03 294.99-22.8 297.04-22.9L297.04-22.9Q297.54-22.75 298.16-22.3 298.79-21.85 299.36-21.25 299.94-20.65 300.34-20.03 300.74-19.4 300.79-18.95L300.79-18.95Q298.79-18.65 296.66-17 294.54-15.35 292.81-13.03 291.09-10.7 289.99-8.05 288.89-5.4 288.89-3.1L288.89-3.1Q288.89-2.15 289.59-1.9L289.59-1.9Q291.04-2.2 292.94-4.38 294.84-6.55 297.54-11.1L297.54-11.1Q298.04-12 298.66-13.1 299.29-14.2 299.94-15.4 300.59-16.6 301.21-17.82 301.84-19.05 302.39-20.2ZM327.44-7.75L327.44-7.75Q326.29-4.1 325.14-1.1 323.99 1.9 322.69 4.42 321.39 6.95 319.89 9.08 318.39 11.2 316.59 13.1L316.59 13.1Q314.29 15.5 311.84 16.78 309.39 18.05 306.94 18.05L306.94 18.05Q305.69 18.05 304.46 17.78 303.24 17.5 302.16 17.03 301.09 16.55 300.26 15.93 299.44 15.3 299.09 14.6L299.09 14.6Q299.09 14 299.79 13.55L299.79 13.55Q300.39 14.1 300.79 14.4 301.19 14.7 301.56 14.9 301.94 15.1 302.36 15.15 302.79 15.2 303.34 15.2L303.34 15.2Q306.19 15.2 308.91 13.53 311.64 11.85 314.06 8.78 316.49 5.7 318.49 1.33 320.49-3.05 321.89-8.45L321.89-8.45Q321.24-7.45 320.29-6 319.34-4.55 318.19-3.13 317.04-1.7 315.81-0.55 314.59 0.6 313.44 1L313.44 1Q312.64 0.95 311.76 0.68 310.89 0.4 310.11-0.1 309.34-0.6 308.74-1.3 308.14-2 307.94-2.9L307.94-2.9Q307.94-4.35 308.04-5.23 308.14-6.1 308.39-7.15L308.39-7.15Q308.84-9.05 309.71-11.45 310.59-13.85 311.76-16.18 312.94-18.5 314.36-20.53 315.79-22.55 317.34-23.7L317.34-23.7Q317.74-23.7 318.34-23.63 318.94-23.55 319.59-23.35 320.24-23.15 320.84-22.88 321.44-22.6 321.89-22.15L321.89-22.15Q321.34-21.65 319.49-18.8 317.64-15.95 315.39-10.6L315.39-10.6Q315.14-10.05 314.79-9 314.44-7.95 314.11-6.8 313.79-5.65 313.54-4.55 313.29-3.45 313.29-2.8L313.29-2.8Q313.29-2.4 313.41-2.2 313.54-2 313.64-1.9L313.64-1.9Q314.54-2.05 316.04-3.38 317.54-4.7 319.44-7.5L319.44-7.5Q320.64-9.3 321.64-11.08 322.64-12.85 323.61-14.65 324.59-16.45 325.64-18.35 326.69-20.25 327.89-22.25L327.89-22.25Q328.54-22.25 329.29-22.1 330.04-21.95 330.74-21.73 331.44-21.5 331.96-21.23 332.49-20.95 332.74-20.65L332.74-20.65Q331.19-17.35 329.84-14.2 328.49-11.05 327.44-7.75Z" fill="#000000" data-fill-palette-color="secondary"></path></g></svg></g></svg></g></svg></g></svg></g><g><svg viewBox="0 0 136.96414175191782 111.1683157959393" height="111.1683157959393" width="136.96414175191782"><g><svg version="1.1" xmlns="http://www.w3.org/2000/svg" xmlns:xlink="http://www.w3.org/1999/xlink" x="0" y="0" viewBox="0 0 100 81.16600036621094" enable-background="new 0 0 100 81.166" xml:space="preserve" width="136.96414175191782" height="111.1683157959393" class="icon-icon-0" data-fill-palette-color="accent" id="icon-0"><path d="M87.043 0H50 12.957L0 23.557l50 57.609 50-57.609L87.043 0zM83.635 6.345l7.59 13.801h-13.64L83.635 6.345zM77.168 6.043l-5.537 12.636L57.792 6.043H77.168zM64.273 20.146H50 35.727L50 7.113 64.273 20.146zM42.208 6.043L28.37 18.679 22.832 6.043H42.208zM16.365 6.345l6.05 13.801H8.775L16.365 6.345zM10.288 26.189h14.776l15.078 34.399L10.288 26.189zM31.663 26.189H50h18.338L50 68.022 31.663 26.189zM59.857 60.589l15.078-34.399h14.777L59.857 60.589z" fill="#000000" data-fill-palette-color="accent"></path></svg></g></svg></g></svg></g><defs></defs></svg><rect width="395.52" height="79.73047045271267" fill="none" stroke="none" visibility="hidden"></rect></g></svg></g></svg>